<?xml version="1.0" encoding="UTF-8" standalone="no"?>
<svg
   xmlns:dc="http://purl.org/dc/elements/1.1/"
   xmlns:cc="http://creativecommons.org/ns#"
   xmlns:rdf="http://www.w3.org/1999/02/22-rdf-syntax-ns#"
   xmlns:svg="http://www.w3.org/2000/svg"
   xmlns="http://www.w3.org/2000/svg"
   xmlns:sodipodi="http://sodipodi.sourceforge.net/DTD/sodipodi-0.dtd"
   xmlns:inkscape="http://www.inkscape.org/namespaces/inkscape"
   inkscape:version="1.0 (4035a4fb49, 2020-05-01)"
   sodipodi:docname="logo.svg"
   id="svg6"
   version="1.1"
   viewBox="16.897 95.742 589.39034 601.93056"
   height="48"
   width="47">
  <metadata
     id="metadata12">
    <rdf:RDF>
      <cc:Work
         rdf:about="">
        <dc:format>image/svg+xml</dc:format>
        <dc:type
           rdf:resource="http://purl.org/dc/dcmitype/StillImage" />
        <dc:title></dc:title>
      </cc:Work>
    </rdf:RDF>
  </metadata>
  <defs
     id="defs10" />
  <sodipodi:namedview
     inkscape:current-layer="svg6"
     inkscape:window-maximized="1"
     inkscape:window-y="-9"
     inkscape:window-x="-9"
     inkscape:cy="25.984455"
     inkscape:cx="23.993814"
     inkscape:zoom="13.304921"
     scale-x="12.54022"
     showborder="true"
     showgrid="false"
     id="namedview8"
     inkscape:window-height="1013"
     inkscape:window-width="1920"
     inkscape:pageshadow="2"
     inkscape:pageopacity="0"
     guidetolerance="10"
     gridtolerance="10"
     objecttolerance="10"
     borderopacity="1"
     bordercolor="#666666"
     pagecolor="#ffffff" />
  <path
     style="fill:#7f2aff"
     id="path2"
     d="M 23.447309,698.18915 V 97.672145 L 379.0303,313.63015 c 0,0 10.494,-18.844 -4.455,-30.427 l -14.949,-11.551 -18.844,-13.695 115.272,-69.368 v 268.43 l -329.612,-199.095 v 324.794 c 0,0 2.476,57.817 -22.24199,72.041 -24.718001,14.224 -80.753001,43.43 -80.753001,43.43 z" />
  <path
     style="fill:#7f2aff"
     id="path4"
     d="M 601.6543,97.672145 V 698.18915 l -355.584,-215.958 c 0,0 -10.494,18.844 4.455,30.427 l 14.949,11.551 18.844,13.695 -115.271,69.367 v -268.396 l 329.611,199.062 v -324.828 c 0,0 -2.475,-57.817 22.242,-72.041 24.718,-14.223 80.754,-43.396005 80.754,-43.396005 z" />
</svg>
